# xmcd
#
# Track frame offsets:
#	150
#	23400
#	41700
#	64650
#	90900
#	114150
#
# Disc length: 1764 seconds
#
# Revision: 1
# Processed by: cddbd v1.5.1PL0 Copyright (c) Steve Scherf et al.
# Submitted via: CDex 1.50Beta5
#
DISCID=3806e206
DTITLE=SPEED - Walking in the rain／Stars to shine again
DYEAR=2003
DGENRE=Pop
TTITLE0=Walking in the rain
TTITLE1=Stars to shine again
TTITLE2=Be My Love (X'mas Version)
TTITLE3=White Love (2003 live memorial)
TTITLE4=Walking in the rain (Instrumental)
TTITLE5=Stars to shine again (Instrumental)
EXTD=
EXTT0=
EXTT1=
EXTT2=
EXTT3=
EXTT4=
EXTT5=
PLAYORDER=
